{"glyphs":{":":{"x_min":0,"x_max":211,"ha":211,"o":"m 149 231 b 149 252 136 267 103 267 b 69 267 56 248 56 231 b 56 215 67 180 100 180 b 133 180 149 216 149 231 z m 149 57 b 149 78 136 92 103 92 b 69 92 56 73 56 57 b 56 41 67 6 100 6 b 133 6 149 41 149 57 z"},"$":{"x_min":0,"x_max":273,"ha":273,"o":"m 241 192 b 241 296 119 352 119 419 b 119 442 146 447 156 447 b 179 447 186 423 186 409 b 186 402 195 398 203 398 b 212 398 220 402 220 409 b 220 423 219 479 163 489 b 164 522 163 547 161 555 b 158 566 148 573 127 573 b 111 573 111 568 107 564 b 101 552 96 524 93 485 b 36 471 21 435 21 416 b 21 347 157 256 157 176 b 157 131 126 125 110 125 b 81 125 75 193 75 202 b 75 205 62 207 49 207 b 38 207 28 206 28 202 b 28 172 29 99 87 81 b 89 46 92 19 96 7 b 98 2 104 0 111 0 b 120 0 128 3 130 7 b 133 14 136 42 140 79 b 197 90 241 137 241 192 z"},"?":{"x_min":0,"x_max":277,"ha":277,"o":"m 85 56 b 51 56 38 37 38 21 b 38 5 49 -30 82 -30 b 115 -30 131 5 131 21 b 131 42 118 56 85 56 z m 58 92 b 60 86 71 82 80 82 b 88 82 95 85 95 92 b 95 212 234 350 234 460 b 234 497 231 578 131 578 b 57 578 55 500 55 475 b 55 463 64 457 73 457 b 81 457 89 463 89 474 b 89 497 105 535 129 535 b 152 535 156 497 156 460 b 156 354 25 187 58 92 z"},"<":{"x_min":0,"x_max":329,"ha":329,"o":"m 283 401 b 277 413 274 412 270 414 b 225 414 64 322 32 288 b 24 282 20 268 24 258 b 60 223 236 143 273 143 b 280 143 287 165 283 169 b 273 182 158 242 90 273 b 158 300 277 355 290 370 b 294 375 293 385 283 401 z"},"'":{"x_min":0,"x_max":157,"ha":157,"o":"m 44 544 b 44 490 18 451 18 438 b 18 425 25 422 30 422 b 52 422 98 504 98 535 b 98 552 82 561 67 561 b 55 561 44 555 44 544 z"},"=":{"x_min":0,"x_max":329,"ha":329,"o":"m 270 367 b 253 374 214 377 173 377 b 115 377 52 371 36 361 b 31 358 33 334 37 332 b 47 327 119 323 181 323 b 223 323 261 325 269 329 b 280 335 279 358 270 367 z m 270 237 b 253 244 215 246 175 246 b 117 246 52 240 36 231 b 31 228 33 204 37 202 b 47 197 119 193 181 193 b 223 193 261 195 269 199 b 280 205 279 228 270 237 z"},"a":{"x_min":0,"x_max":358,"ha":358,"o":"m 358 198 b 358 198 299 32 277 32 b 268 32 255 151 281 269 b 284 282 253 295 229 295 b 218 295 208 292 204 284 b 203 281 202 278 200 274 b 188 285 168 292 133 292 b 39 292 -21 195 -21 114 b -21 42 5 0 59 0 b 101 0 150 94 183 170 b 182 154 181 139 181 125 b 181 68 201 -19 265 -19 b 307 -19 379 190 379 190 b 382 199 375 205 368 205 b 364 205 360 203 358 198 z m 76 53 b 69 53 62 61 62 83 b 62 181 116 251 140 251 b 159 251 162 205 162 185 b 135 123 101 53 76 53 z"},"L":{"x_min":0,"x_max":271,"ha":271,"o":"m 255 36 b 255 36 193 -7 116 -7 b 102 -7 90 129 90 217 b 90 354 109 509 109 527 b 109 544 86 551 68 551 b 53 551 33 547 27 539 b 21 530 2 379 2 241 b 2 86 26 -43 93 -43 b 173 -43 260 3 260 3 b 280 14 272 38 261 38 b 259 38 257 37 255 36 z"},"3":{"x_min":0,"x_max":232,"ha":232,"o":"m 137 301 b 183 329 218 393 218 481 b 218 556 151 576 129 575 b 36 575 23 500 23 461 b 23 457 26 445 39 445 b 53 445 53 454 53 464 b 53 475 66 533 90 533 b 104 533 126 533 126 479 b 126 414 98 314 77 304 b 65 299 67 288 86 285 b 103 280 122 251 122 193 b 122 117 98 44 84 44 b 40 44 37 123 37 133 b 37 141 36 146 25 146 b 24 146 21 146 19 146 b 13 145 11 142 11 138 b 11 99 8 0 86 0 b 110 0 200 14 200 182 b 200 250 188 292 137 301 z"},";":{"x_min":0,"x_max":211,"ha":211,"o":"m 150 231 b 150 252 137 266 104 266 b 70 266 57 247 57 231 b 57 215 68 180 101 180 b 134 180 150 215 150 231 z m 67 89 b 67 26 33 -19 33 -34 b 33 -50 42 -53 49 -53 b 77 -53 137 41 137 78 b 137 98 116 109 96 109 b 81 109 67 102 67 89 z"},"J":{"x_min":0,"x_max":141,"ha":141,"o":"m -24 33 b -35 -15 -50 -47 -74 -47 b -83 -47 -88 -43 -88 -32 b -88 -15 -61 6 -24 33 z m 90 515 b 90 526 69 532 52 532 b 39 532 26 530 18 524 b -3 445 3 212 -18 69 b -71 32 -115 1 -115 -32 b -115 -45 -108 -67 -61 -67 b 6 -67 44 -5 65 100 b 107 135 148 176 173 226 b 177 237 171 244 165 244 b 160 244 155 241 152 235 b 133 197 104 164 71 136 b 86 235 90 365 90 515 z"},"V":{"x_min":0,"x_max":277,"ha":277,"o":"m 8 564 b 2 549 0 115 65 -31 b 71 -39 86 -42 102 -42 b 126 -42 151 -35 154 -25 b 158 -8 241 427 267 563 b 270 577 261 585 251 585 b 243 585 235 579 233 569 b 209 421 130 58 130 58 b 130 58 90 492 89 557 b 89 570 64 579 41 579 b 26 579 12 575 8 564 z"},"\"":{"x_min":0,"x_max":295,"ha":295,"o":"m 64 562 b 47 562 38 555 35 548 b 24 534 30 441 42 409 b 45 402 52 400 60 400 b 68 400 77 403 79 409 b 89 434 104 532 94 546 b 90 551 87 562 64 562 z m 190 546 b 186 551 183 562 160 562 b 143 562 134 555 131 548 b 120 534 126 441 138 409 b 141 402 148 400 156 400 b 164 400 173 403 175 409 b 185 434 200 532 190 546 z"},"7":{"x_min":0,"x_max":260,"ha":260,"o":"m 199 326 b 194 326 186 326 176 327 b 204 419 228 503 236 538 b 238 543 239 548 239 553 l 238 557 b 237 565 232 571 223 571 b 220 571 216 571 210 572 b 204 573 198 573 192 573 b 187 573 181 573 176 572 b 162 572 146 573 129 573 b 95 573 58 572 27 569 b 9 567 9 523 32 525 b 71 530 111 530 151 530 b 144 478 131 405 114 327 b 95 327 73 326 50 324 b 32 322 32 283 55 285 b 55 285 69 288 105 289 b 85 197 60 101 36 24 b 29 7 45 -5 63 -5 b 74 -5 85 -1 91 11 b 113 75 133 184 165 289 b 175 289 186 288 198 288 b 218 287 224 324 199 326 z"},"S":{"x_min":0,"x_max":273,"ha":273,"o":"m 201 509 b 201 533 200 611 126 611 b 25 611 3 530 3 493 b 3 384 138 235 138 79 b 138 7 107 -1 92 -1 b 45 -1 41 106 41 121 b 41 127 33 130 25 130 b 17 130 9 127 9 120 b 9 65 11 -43 96 -43 b 165 -43 222 5 222 104 b 222 269 100 418 100 524 b 100 561 127 568 137 568 b 161 568 167 530 167 508 b 167 496 175 491 184 491 b 192 491 201 497 201 509 z"},"}":{"x_min":0,"x_max":188,"ha":188,"o":"m -7 -60 b 68 -60 127 -39 127 51 b 127 140 110 267 147 293 b 166 306 160 320 142 332 b 108 354 130 461 130 522 b 130 583 82 624 8 624 b -9 624 -9 586 8 586 b 52 586 74 557 74 523 b 74 489 39 343 88 316 b 36 260 58 67 58 33 b 58 -1 42 -23 -4 -23 b -20 -23 -32 -60 -7 -60 z"},"Z":{"x_min":0,"x_max":223,"ha":223,"o":"m 205 4 b 194 5 159 6 119 6 b 92 6 63 5 36 4 b 59 75 94 176 127 273 b 142 273 159 272 179 271 b 199 270 205 313 180 314 b 172 315 159 315 141 316 b 185 446 223 560 220 570 b 223 581 218 595 205 596 b 194 596 159 597 119 597 b 83 597 43 597 9 594 b -9 591 -9 548 14 549 b 53 554 94 555 133 555 b 122 500 95 410 65 314 b 55 314 44 313 34 312 b 16 310 16 266 38 268 b 38 268 42 269 51 270 b 16 161 -19 52 -32 -8 b -33 -21 -13 -42 5 -42 b 7 -42 8 -42 14 -42 b 14 -42 60 -37 128 -37 b 151 -37 176 -38 203 -39 b 223 -40 229 2 205 4 z"},"x":{"x_min":0,"x_max":196,"ha":196,"o":"m 152 296 b 143 277 112 224 76 169 b 51 229 28 285 25 295 b 20 310 4 317 -11 317 b -32 317 -51 304 -40 280 b -33 265 3 181 35 108 b 12 75 -11 45 -28 25 b -37 14 -32 0 -21 0 b -16 0 -9 3 -2 11 b 15 31 32 53 49 75 b 68 31 84 -3 86 -8 b 93 -23 104 -29 114 -29 b 132 -29 149 -12 145 0 b 142 8 117 69 91 133 b 141 203 180 268 185 280 b 190 293 177 304 165 304 b 160 304 155 302 152 296 z"},")":{"x_min":0,"x_max":190,"ha":190,"o":"m 26 -20 b 26 -42 47 -57 68 -57 b 75 -57 78 -53 82 -49 b 93 -36 114 9 129 69 b 145 130 155 206 156 283 b 157 360 148 437 133 500 b 119 562 99 610 89 627 b 86 632 82 633 77 633 b 66 633 52 624 52 616 b 52 604 62 561 69 503 b 76 445 80 371 77 298 b 74 225 64 153 52 95 b 40 37 27 -5 26 -20 z"},"&":{"x_min":0,"x_max":243,"ha":243,"o":"m 169 489 b 170 522 169 547 167 556 b 164 567 154 573 133 573 b 117 573 117 569 112 564 b 106 553 102 522 98 481 b 67 468 33 436 33 364 b 33 316 45 287 96 280 b 50 260 15 216 15 154 b 15 109 64 92 92 89 b 94 50 98 21 102 7 b 103 2 110 0 117 0 b 125 0 135 3 136 7 b 139 16 143 48 147 93 b 201 106 210 146 210 168 b 210 171 207 179 194 179 b 179 179 180 173 180 166 b 180 159 167 118 143 118 b 129 118 106 118 106 156 b 106 201 135 271 156 278 b 168 282 165 290 146 292 b 130 295 111 316 111 356 b 111 409 135 460 149 460 b 193 460 190 405 190 398 b 190 391 192 385 207 385 b 214 385 222 389 222 395 b 222 419 224 477 169 489 z"},"_":{"x_min":0,"x_max":404,"ha":404,"o":"m 338 -9 b 317 -3 269 -1 219 -1 b 144 -1 62 -6 41 -14 b 35 -17 38 -37 43 -39 b 56 -44 149 -47 227 -47 b 280 -47 326 -45 336 -42 b 351 -37 349 -17 338 -9 z"},"v":{"x_min":0,"x_max":203,"ha":203,"o":"m -17 293 b -21 278 16 90 51 19 b 58 6 74 0 89 0 b 103 0 116 5 121 13 b 132 31 187 290 190 303 b 192 310 186 313 179 313 b 173 313 165 310 163 304 b 159 293 108 71 103 71 b 97 71 85 166 69 293 b 68 302 49 307 29 307 b 8 307 -13 302 -17 293 z"},"O":{"x_min":0,"x_max":362,"ha":362,"o":"m 225 588 b 212 602 189 610 165 610 b 140 610 115 602 99 583 b 81 562 -4 459 -4 250 b -4 42 70 -43 150 -43 b 243 -43 293 117 293 280 b 293 443 274 536 225 588 z m 164 -14 b 131 -14 110 85 110 245 b 110 475 175 552 198 552 b 221 552 253 490 253 288 b 253 87 193 -14 164 -14 z"},"(":{"x_min":0,"x_max":190,"ha":190,"o":"m 130 632 b 125 634 121 634 118 634 b 111 634 108 630 104 626 b 93 613 72 568 57 508 b 41 447 31 371 30 294 b 29 217 38 140 53 77 b 67 15 87 -33 97 -50 b 100 -55 104 -56 109 -56 b 120 -56 134 -47 134 -39 b 134 -27 124 16 117 74 b 110 132 106 206 109 279 b 112 352 122 424 134 482 b 146 540 160 582 160 597 b 161 612 153 624 130 632 z"},"C":{"x_min":0,"x_max":296,"ha":296,"o":"m 177 602 b 107 602 0 494 0 227 b 0 -41 91 -56 162 -56 b 221 -56 284 102 318 190 b 321 197 313 205 305 205 b 302 205 298 203 296 198 b 260 106 205 -35 152 -35 b 114 -35 107 114 107 210 b 107 356 159 543 209 543 b 235 543 203 487 231 487 b 259 487 282 602 177 602 z"},"W":{"x_min":0,"x_max":429,"ha":429,"o":"m 386 569 b 361 421 283 58 283 58 b 283 58 270 205 258 341 b 257 353 229 362 204 362 b 182 362 162 355 162 339 b 163 320 164 301 165 282 b 140 162 118 58 118 58 b 118 58 79 492 78 557 b 77 570 53 579 30 579 b 15 579 0 574 -4 564 b -10 549 -12 115 53 -31 b 59 -39 74 -43 90 -43 b 113 -43 139 -35 142 -25 b 144 -18 158 56 177 151 b 186 78 199 11 218 -31 b 224 -39 239 -43 255 -43 b 278 -43 304 -35 307 -25 b 311 -8 396 427 420 563 b 423 577 414 584 404 584 b 396 584 388 579 386 569 z"},"A":{"x_min":0,"x_max":273,"ha":273,"o":"m 161 582 b 148 595 129 602 112 602 b 97 602 84 598 74 588 b 21 535 -7 147 -7 -49 b -7 -54 -1 -56 7 -56 b 20 -56 36 -51 36 -44 b 36 -10 37 24 39 58 b 45 58 51 58 57 58 b 82 58 111 60 135 67 b 137 25 137 -4 137 -10 b 137 -25 158 -35 179 -35 b 198 -35 217 -26 217 -2 b 217 47 236 507 161 582 z m 39 78 b 51 320 90 540 105 540 b 117 540 129 252 135 92 b 110 86 73 79 39 78 z"},"f":{"x_min":0,"x_max":142,"ha":142,"o":"m 138 602 b 58 602 22 499 7 368 b -21 368 -42 369 -49 369 b -65 369 -76 338 -49 337 b -46 337 -42 337 -38 337 b -27 337 -13 337 4 338 b 0 289 -1 236 -1 184 b -1 66 6 10 25 -109 b 28 -127 48 -136 67 -136 b 84 -136 99 -129 98 -117 b 98 -110 79 22 79 137 b 79 220 82 288 88 343 b 114 346 141 349 168 352 b 184 354 186 378 171 378 b 170 378 170 378 169 378 b 143 374 116 372 91 371 b 108 515 140 565 157 565 b 176 565 179 533 179 507 b 179 501 184 499 190 499 b 201 499 216 507 216 518 b 216 576 191 602 138 602 z"},"Q":{"x_min":0,"x_max":344,"ha":344,"o":"m 227 -1 b 272 57 296 167 296 279 b 296 442 277 536 228 588 b 215 602 191 610 168 610 b 143 610 118 602 102 583 b 83 561 -1 458 -1 250 b -1 42 73 -43 153 -43 b 172 -43 189 -36 204 -24 b 215 -38 227 -56 244 -80 b 247 -85 252 -87 257 -87 b 269 -87 282 -75 272 -61 b 264 -49 250 -30 227 -1 z m 167 -14 b 134 -14 113 85 113 244 b 113 474 178 552 201 552 b 224 552 256 489 256 288 b 256 158 231 71 206 25 b 201 30 196 37 190 43 b 187 46 184 47 181 47 b 168 47 154 31 166 18 b 166 18 172 15 187 -3 b 179 -10 172 -14 167 -14 z"},"w":{"x_min":0,"x_max":337,"ha":337,"o":"m 372 256 b 349 250 289 237 266 235 b 254 235 249 230 250 224 b 252 210 258 186 258 135 b 258 27 216 -18 202 -18 b 188 -18 208 164 196 174 b 189 181 175 184 164 184 b 156 184 149 183 146 179 b 137 171 76 58 71 58 b 67 58 98 264 98 284 b 98 299 61 310 39 310 b 32 310 26 309 24 307 b 13 296 -12 154 -12 70 b -12 42 4 0 32 0 b 82 0 118 95 123 95 b 129 95 111 -50 186 -50 b 226 -50 289 7 289 138 b 289 179 287 201 285 213 b 299 215 353 224 373 230 b 389 235 392 257 377 257 b 376 257 374 256 372 256 z"},"-":{"x_min":0,"x_max":317,"ha":317,"o":"m 250 171 b 236 177 204 179 169 179 b 118 179 62 174 48 166 b 43 163 45 143 49 141 b 58 136 121 133 175 133 b 211 133 242 135 249 138 b 259 143 258 164 250 171 z"},"E":{"x_min":0,"x_max":290,"ha":290,"o":"m 255 36 b 255 36 193 -7 116 -7 b 103 -7 91 119 90 207 b 108 210 139 215 191 219 b 210 221 212 254 188 252 b 171 251 140 248 90 239 b 92 370 109 510 109 527 b 109 532 107 536 104 539 b 137 544 190 550 251 555 b 269 556 272 589 250 589 b 249 589 249 589 248 589 b 227 587 127 579 57 566 b 49 565 46 556 46 549 b 38 547 30 543 27 539 b 21 530 2 379 2 241 b 2 86 26 -43 93 -43 b 173 -43 260 3 260 3 b 280 14 272 38 261 38 b 259 38 257 37 255 36 z"},"s":{"x_min":0,"x_max":197,"ha":197,"o":"m 197 198 b 182 159 163 130 143 109 b 125 190 81 288 81 333 b 81 354 90 363 98 363 b 119 363 107 339 125 339 b 135 339 136 380 96 380 b 64 380 7 366 7 316 b 7 300 12 276 20 249 b 10 221 0 198 0 198 b -4 189 3 183 11 183 b 15 183 19 185 21 190 b 24 197 27 205 31 214 b 48 159 70 98 79 55 b 50 36 29 21 29 -7 b 29 -43 60 -56 73 -56 b 128 -56 150 -14 150 52 b 150 60 150 69 148 79 b 175 105 202 140 218 190 b 221 199 214 205 207 205 b 203 205 199 203 197 198 z m 70 -24 b 63 -24 57 -19 57 -9 b 57 3 67 14 82 26 b 82 -11 77 -24 70 -24 z"},">":{"x_min":0,"x_max":329,"ha":329,"o":"m 290 284 b 258 318 97 410 52 410 b 48 408 46 409 39 397 b 29 380 28 371 33 366 b 45 351 164 296 232 269 b 164 238 49 177 39 165 b 36 161 43 139 49 139 b 86 139 262 218 298 254 b 302 263 298 278 290 284 z"},"l":{"x_min":0,"x_max":169,"ha":169,"o":"m 82 0 b 124 0 190 190 190 190 b 193 199 186 205 179 205 b 175 205 171 203 169 198 b 169 198 118 56 95 56 b 82 56 79 163 79 247 b 79 376 97 523 97 539 b 97 556 75 562 58 562 b 45 562 26 559 20 551 b 14 542 -3 400 -3 269 b -3 122 19 0 82 0 z"},"8":{"x_min":0,"x_max":248,"ha":248,"o":"m 170 342 b 199 394 223 443 223 485 b 223 506 221 575 147 575 b 46 575 24 504 24 471 b 24 418 59 355 92 285 b 50 221 11 155 11 98 b 11 62 13 0 99 0 b 169 0 226 43 226 130 b 226 205 197 277 170 342 z m 121 499 b 121 531 149 538 158 538 b 182 538 189 504 189 484 b 189 455 174 421 153 383 b 135 426 121 465 121 499 z m 95 37 b 65 37 59 79 59 92 b 59 138 82 189 111 241 b 128 198 141 153 141 108 b 141 45 110 37 95 37 z"},"\\":{"x_min":0,"x_max":223,"ha":223,"o":"m 34 556 b 19 552 20 547 18 540 b 11 480 135 77 171 19 b 173 16 177 14 181 14 b 191 14 203 22 203 29 b 203 68 96 503 72 547 b 68 555 61 559 51 559 b 46 559 40 558 34 556 z"},"e":{"x_min":0,"x_max":234,"ha":234,"o":"m 234 198 b 234 198 177 50 124 50 b 108 50 80 77 80 147 b 80 153 80 158 81 163 b 130 174 172 213 172 253 b 172 298 118 306 103 306 b 39 306 -8 222 -8 137 b -8 52 47 0 110 0 b 182 0 255 190 255 190 b 258 199 251 205 244 205 b 240 205 236 203 234 198 z m 116 281 b 123 281 125 265 125 254 b 125 232 103 204 83 188 b 91 240 110 281 116 281 z"},"b":{"x_min":0,"x_max":321,"ha":321,"o":"m 380 192 b 366 192 279 159 264 153 b 267 170 269 187 269 204 b 269 278 231 327 179 327 b 133 327 100 266 78 195 b 85 343 95 538 93 545 b 91 556 69 561 52 562 b 40 562 31 561 21 554 b 12 548 -22 254 13 37 b 14 29 35 22 51 22 b 61 22 70 25 70 32 b 70 34 71 45 73 67 b 95 195 131 292 169 292 b 174 292 185 265 185 210 b 185 177 181 143 174 111 b 111 78 59 35 59 -12 b 59 -29 67 -52 101 -52 b 179 -52 237 33 259 124 b 297 141 339 157 382 170 b 396 174 390 192 380 192 z m 98 -25 b 93 -25 86 -22 86 -9 b 86 20 117 50 166 79 b 148 19 122 -25 98 -25 z"},"%":{"x_min":0,"x_max":296,"ha":296,"o":"m 258 538 b 253 540 249 541 246 541 b 242 541 239 538 235 536 b 190 495 22 109 11 41 b 10 32 23 25 33 25 b 37 25 40 26 42 28 b 67 58 270 457 280 506 b 283 519 277 529 258 538 z m 84 381 b 118 381 133 417 133 432 b 133 453 121 468 87 468 b 53 468 41 449 41 432 b 41 416 51 381 84 381 z m 192 182 b 159 182 146 163 146 147 b 146 130 156 96 190 96 b 223 96 239 131 239 147 b 239 168 226 182 192 182 z"},"m":{"x_min":0,"x_max":487,"ha":487,"o":"m 487 198 b 487 198 410 6 378 6 b 368 6 406 270 396 298 b 391 313 361 321 340 321 b 330 321 323 319 320 316 b 312 308 251 163 222 90 b 224 155 222 242 217 251 b 212 259 193 264 177 264 b 166 264 157 262 153 258 b 145 250 108 174 78 105 b 80 146 84 206 90 291 b 91 305 61 316 38 316 b 26 316 16 313 11 307 b 3 294 -16 94 15 10 b 18 1 38 -4 55 -4 b 69 -4 80 -1 80 6 b 79 9 79 12 79 17 b 97 91 150 210 153 210 b 157 210 154 67 159 38 b 162 21 186 16 202 16 b 209 16 214 17 216 18 b 236 18 312 252 322 252 b 325 252 298 103 298 32 b 298 -16 323 -57 357 -57 b 413 -57 508 190 508 190 b 511 199 504 205 497 205 b 493 205 489 203 487 198 z"},"#":{"x_min":0,"x_max":402,"ha":402,"o":"m 294 245 b 296 267 297 290 298 312 b 312 312 324 311 334 311 b 352 311 365 312 371 314 b 380 317 385 328 385 351 b 385 368 381 369 378 373 b 367 380 339 386 303 389 b 305 453 306 504 303 518 b 300 529 290 535 268 535 b 253 535 252 531 248 526 b 240 510 234 458 231 394 b 213 394 194 395 176 395 b 178 456 179 505 176 518 b 173 529 163 535 141 535 b 126 535 125 531 121 526 b 113 510 107 458 104 393 b 60 391 24 387 10 381 b 2 378 4 347 10 344 b 19 340 55 335 102 329 b 101 302 101 275 101 248 b 58 246 24 242 10 236 b 2 232 4 202 10 199 b 19 195 55 189 103 184 b 104 126 108 79 114 61 b 116 56 122 54 129 54 b 137 54 147 57 148 61 b 152 72 157 118 162 177 b 184 175 208 173 230 171 b 232 119 235 78 241 61 b 243 56 249 54 256 54 b 265 54 274 57 275 61 b 278 71 283 113 288 168 b 306 167 323 166 337 166 b 354 166 366 167 371 169 b 380 172 385 182 385 206 b 385 223 381 223 378 228 b 367 236 335 241 294 245 z m 167 250 b 169 273 171 298 172 322 b 191 320 210 318 229 317 b 228 294 228 271 228 249 b 208 249 188 250 167 250 z"},",":{"x_min":0,"x_max":159,"ha":159,"o":"m 40 13 b 40 -49 7 -95 7 -110 b 7 -125 16 -129 23 -129 b 51 -129 111 -34 111 3 b 111 23 90 33 70 33 b 55 33 40 26 40 13 z"},"n":{"x_min":0,"x_max":391,"ha":391,"o":"m 282 6 b 267 6 286 221 286 263 b 286 305 254 325 222 325 b 154 325 83 100 83 100 b 83 100 89 230 76 243 b 63 256 49 256 38 256 b 26 256 0 249 0 238 b 0 220 -8 70 28 34 b 32 30 41 28 50 28 b 67 28 87 35 90 48 b 102 93 180 291 208 291 b 218 291 196 153 196 71 b 196 -11 225 -57 261 -57 b 317 -57 412 190 412 190 b 415 199 408 205 401 205 b 397 205 393 203 391 198 b 391 198 315 6 282 6 z"},"h":{"x_min":0,"x_max":347,"ha":347,"o":"m 347 198 b 347 198 268 -13 235 -13 b 226 -13 218 -7 221 32 b 231 148 261 237 261 279 b 261 316 236 352 205 352 b 148 352 103 265 71 172 b 74 222 79 289 87 380 b 93 454 103 525 103 534 b 104 547 92 559 63 562 b 49 562 26 561 20 546 b 0 475 -15 128 19 17 b 23 3 36 -3 47 -3 b 59 -3 69 3 68 13 b 67 20 66 26 66 41 b 86 174 151 307 176 305 b 184 304 151 188 144 112 b 133 -18 167 -76 214 -76 b 270 -76 368 190 368 190 b 371 199 364 205 357 205 b 353 205 349 203 347 198 z"},"z":{"x_min":0,"x_max":267,"ha":267,"o":"m 267 198 b 242 140 215 91 187 50 b 179 72 165 85 144 85 b 133 85 119 81 103 71 b 103 94 174 200 174 252 b 174 282 160 309 112 309 b 92 309 68 305 46 301 b 44 341 25 372 -9 372 b -42 372 -57 345 -57 320 b -57 295 -42 275 -16 275 b -6 275 6 277 19 279 b 18 260 12 235 0 198 b -3 188 4 180 11 180 b 29 180 44 268 45 283 b 61 286 75 289 85 289 b 93 289 100 289 100 272 b 100 233 26 80 26 52 b 26 37 35 32 46 32 b 54 32 72 38 89 38 b 107 38 124 31 124 3 b 124 -6 123 -20 120 -37 b 55 -112 2 -154 2 -198 b 2 -231 25 -250 60 -250 b 152 -250 207 -79 195 18 b 229 67 263 123 288 190 b 291 199 284 204 277 204 b 272 204 268 202 267 198 z m -4 345 b 12 345 18 322 19 296 b 9 295 0 294 -7 294 b -32 294 -23 345 -4 345 z m 41 -210 b 31 -210 28 -203 28 -197 b 28 -173 63 -138 109 -86 b 94 -146 69 -210 41 -210 z"},"B":{"x_min":0,"x_max":326,"ha":326,"o":"m 365 148 b 365 148 329 138 280 122 b 281 129 281 136 281 143 b 281 223 233 289 162 302 b 219 340 281 406 281 508 b 281 562 247 602 185 602 b 145 602 118 554 99 491 b 99 515 98 532 96 540 b 93 554 80 562 53 562 b 34 562 33 557 28 550 b -4 488 -4 21 18 -53 b 20 -59 29 -62 38 -62 b 48 -62 59 -58 61 -53 b 62 -51 63 -48 63 -44 b 74 -51 90 -56 115 -56 b 192 -56 262 5 278 102 b 328 119 369 131 369 131 b 381 134 378 148 368 148 b 367 148 366 148 365 148 z m 204 147 b 204 129 202 110 197 93 b 147 73 98 49 72 23 b 80 102 86 182 91 261 b 103 265 118 268 132 268 b 173 268 204 222 204 147 z m 183 556 b 190 556 203 553 203 530 b 203 458 157 345 94 312 b 107 427 133 556 183 556 z m 99 -30 b 87 -30 80 -25 80 -12 b 80 14 131 43 190 68 b 171 13 134 -30 99 -30 z"},"K":{"x_min":0,"x_max":237,"ha":237,"o":"m 245 580 b 192 507 120 355 87 281 b 93 424 100 566 98 572 b 95 584 73 590 56 591 b 54 591 52 592 50 592 b 39 592 30 588 23 582 b 14 575 -22 235 13 -15 b 15 -25 36 -32 52 -32 b 64 -32 73 -29 73 -21 b 73 -12 78 84 83 197 b 84 200 86 204 88 209 b 102 166 142 47 176 -14 b 179 -18 184 -21 189 -21 b 197 -21 205 -15 199 2 b 199 2 136 178 111 261 b 166 374 275 561 275 561 b 283 572 269 586 257 586 b 252 586 248 584 245 580 z"},"R":{"x_min":0,"x_max":295,"ha":295,"o":"m 127 200 b 198 229 319 306 319 456 b 319 503 299 602 214 602 b 159 602 124 528 101 437 b 103 488 102 527 99 540 b 95 554 82 562 53 562 b 33 562 32 556 27 550 b -7 488 -7 21 17 -53 b 19 -59 28 -62 37 -62 b 48 -62 60 -58 62 -53 b 68 -36 78 55 86 160 b 113 107 167 5 213 -50 b 217 -54 225 -57 233 -57 b 246 -57 257 -51 248 -34 b 248 -34 171 109 127 200 z m 215 551 b 239 551 238 485 238 457 b 238 364 175 255 91 233 b 92 246 93 259 94 271 b 116 405 155 551 215 551 z"},"T":{"x_min":0,"x_max":225,"ha":225,"o":"m 239 611 b 213 609 83 595 -7 578 b -28 573 -24 534 0 534 b 2 534 3 534 5 534 b 5 534 30 540 72 547 b 60 478 38 214 68 12 b 70 3 89 -4 105 -4 b 116 -4 125 0 125 7 b 125 26 151 543 147 558 b 176 562 208 565 243 568 b 267 570 270 611 242 611 b 241 611 240 611 239 611 z"},"P":{"x_min":0,"x_max":271,"ha":271,"o":"m 311 456 b 311 503 291 602 206 602 b 142 602 105 502 83 389 b 86 464 86 523 82 540 b 79 554 69 562 45 562 b 28 562 28 556 23 550 b -4 488 -4 21 15 -53 b 17 -59 24 -62 32 -62 b 41 -62 50 -58 52 -53 b 58 -35 66 69 73 185 l 73 187 b 106 189 311 260 311 456 z m 207 551 b 231 551 231 485 231 457 b 231 363 165 252 79 232 b 100 374 141 551 207 551 z"},"|":{"x_min":0,"x_max":218,"ha":218,"o":"m 114 583 b 102 583 101 577 98 571 b 77 509 77 42 91 -32 b 93 -39 98 -41 104 -41 b 111 -41 118 -38 120 -32 b 129 10 151 506 143 560 b 140 575 132 583 114 583 z"},"t":{"x_min":0,"x_max":168,"ha":168,"o":"m 168 198 b 168 198 117 56 94 56 b 81 56 78 163 78 246 b 78 307 82 373 86 426 b 106 428 127 430 147 433 b 163 435 165 459 150 459 b 149 459 149 459 148 459 b 128 456 108 454 88 453 b 92 499 96 532 96 539 b 96 555 74 562 57 562 b 43 562 25 559 19 550 b 16 546 10 506 5 449 b -33 449 -61 450 -69 450 b -86 450 -96 419 -70 418 b -66 418 -62 418 -57 418 b -42 418 -21 418 2 420 b -1 373 -4 320 -4 268 b -4 122 18 0 81 0 b 123 0 189 190 189 190 b 192 199 185 205 178 205 b 174 205 170 203 168 198 z"},"M":{"x_min":0,"x_max":416,"ha":416,"o":"m 5 -12 b 8 -18 17 -20 26 -20 b 37 -20 49 -17 51 -11 b 54 -1 39 293 60 472 b 60 472 111 118 124 104 b 130 99 139 96 148 96 b 159 96 169 100 172 106 b 176 116 211 349 237 439 b 237 439 221 25 249 -44 b 254 -52 270 -57 286 -57 b 302 -57 319 -52 322 -41 b 328 -19 355 492 328 582 b 325 594 299 602 277 602 b 263 602 251 599 246 592 b 235 573 167 194 167 194 b 167 194 128 549 112 576 b 105 588 90 592 74 592 b 51 592 25 583 21 575 b 4 545 -20 90 5 -12 z"},"g":{"x_min":0,"x_max":363,"ha":363,"o":"m 363 198 b 329 116 285 53 242 3 b 264 138 270 276 270 281 b 270 292 247 298 226 298 b 209 298 193 294 193 283 b 193 278 192 268 191 253 b 180 261 164 266 142 266 b 65 266 -43 199 -43 87 b -43 0 18 0 39 0 b 78 0 139 81 183 149 b 175 74 165 -17 152 -89 b 105 -134 71 -165 71 -198 b 71 -231 94 -250 129 -250 b 180 -250 213 -152 234 -40 b 289 18 348 95 384 190 b 388 199 380 205 373 205 b 369 205 365 203 363 198 z m 56 41 b 48 41 45 48 45 59 b 45 145 129 230 160 230 b 174 230 182 215 185 197 b 145 130 85 41 56 41 z m 110 -210 b 100 -210 97 -203 97 -197 b 97 -181 115 -160 144 -132 b 133 -178 122 -210 110 -210 z"},"j":{"x_min":0,"x_max":204,"ha":204,"o":"m 204 198 b 170 116 126 53 83 3 b 105 138 111 276 111 281 b 111 292 88 298 67 298 b 52 298 39 295 34 286 l 0 198 b -3 190 4 184 11 184 b 15 184 19 186 21 190 l 30 211 b 23 131 10 4 -7 -89 b -54 -134 -88 -165 -88 -198 b -88 -231 -65 -250 -30 -250 b 21 -250 54 -152 76 -40 b 130 18 190 95 226 190 b 230 199 222 205 215 205 b 210 205 206 203 204 198 z m -49 -210 b -59 -210 -61 -203 -61 -197 b -61 -181 -43 -160 -15 -132 b -25 -178 -37 -210 -49 -210 z m 81 343 b 114 343 130 378 130 394 b 130 414 117 429 83 429 b 49 429 37 410 37 394 b 37 377 47 343 81 343 z"},"i":{"x_min":0,"x_max":177,"ha":177,"o":"m 177 198 b 177 198 124 51 101 51 b 92 51 73 67 73 149 b 73 210 83 275 83 282 b 83 289 66 298 46 298 b 31 298 11 292 9 280 b 7 272 0 237 0 186 b 0 80 23 0 90 0 b 131 0 198 190 198 190 b 201 199 193 205 186 205 b 182 205 178 203 177 198 z m 62 343 b 95 343 111 378 111 394 b 111 414 98 429 64 429 b 30 429 18 410 18 394 b 18 377 28 343 62 343 z"},"y":{"x_min":0,"x_max":345,"ha":345,"o":"m 345 198 b 314 125 274 74 233 35 b 248 145 252 247 252 251 b 253 271 222 290 199 290 b 186 290 175 284 175 268 b 166 262 97 52 73 52 b 60 52 84 190 84 213 b 84 235 66 250 41 250 b 16 250 12 241 12 241 b 6 224 -9 182 -9 135 b -9 87 -4 20 58 20 b 98 20 146 123 169 177 b 164 116 156 37 145 -34 b 79 -79 26 -109 26 -168 b 26 -224 64 -250 104 -250 b 171 -250 208 -124 228 2 b 281 47 335 107 366 190 b 370 199 362 205 355 205 b 351 205 347 203 345 198 z m 82 -210 b 72 -210 52 -204 52 -167 b 52 -130 89 -101 139 -64 b 125 -146 106 -210 82 -210 z"},"@":{"x_min":0,"x_max":473,"ha":473,"o":"m 320 37 b 448 37 526 384 245 384 b -31 384 -155 -65 230 -65 b 319 -65 368 -20 368 -20 b 377 -10 372 10 361 10 b 358 10 355 9 352 6 b 323 -16 283 -35 230 -35 b -47 -35 37 354 250 354 b 468 354 419 66 334 66 b 311 66 325 165 346 256 b 348 267 313 282 291 282 b 283 282 276 280 274 275 b 273 273 273 271 272 268 b 262 274 247 278 225 278 b 152 278 100 196 100 133 b 100 77 125 51 167 51 b 197 51 230 109 255 165 l 255 148 b 255 104 270 37 320 37 z m 188 104 b 182 104 176 110 176 127 b 176 188 211 239 230 239 b 245 239 247 206 248 193 b 229 150 206 104 188 104 z"},".":{"x_min":0,"x_max":123,"ha":123,"o":"m 106 58 b 106 79 93 93 60 93 b 26 93 13 74 13 58 b 13 42 24 7 57 7 b 90 7 106 42 106 58 z"},"p":{"x_min":0,"x_max":326,"ha":326,"o":"m 395 194 b 381 194 294 161 279 155 b 282 172 284 189 284 206 b 284 280 246 329 194 329 b 132 329 93 214 72 118 b 74 212 75 289 74 293 b 71 304 53 308 38 309 b 27 309 18 308 10 300 b 3 294 -21 -1 15 -217 b 16 -225 33 -231 47 -231 b 57 -231 66 -228 66 -220 b 66 -214 67 -161 68 -91 b 70 -67 72 -44 75 -20 b 78 -35 88 -50 116 -50 b 194 -50 252 35 274 126 b 312 143 354 159 397 172 b 411 176 405 194 395 194 z m 80 18 b 103 164 153 294 184 294 b 189 294 200 267 200 212 b 200 179 196 145 189 113 b 139 87 96 54 80 18 z m 113 -23 b 108 -23 101 -20 101 -7 b 101 22 132 52 181 81 b 163 21 137 -23 113 -23 z"},"X":{"x_min":0,"x_max":265,"ha":265,"o":"m 144 287 b 180 396 213 506 224 563 b 227 577 217 584 207 584 b 199 584 191 579 189 569 b 181 519 157 438 130 353 b 112 438 97 515 93 556 b 92 565 80 569 66 569 b 45 569 20 561 18 548 b 16 537 41 360 78 197 b 38 83 4 -9 4 -9 b 0 -25 13 -35 24 -35 b 31 -35 36 -32 38 -25 b 39 -19 63 47 92 133 b 109 67 126 8 144 -31 b 149 -40 159 -44 170 -44 b 196 -44 230 -24 224 -8 b 201 53 170 172 144 287 z"},"*":{"x_min":0,"x_max":258,"ha":258,"o":"m 159 455 b 184 469 204 483 208 489 b 213 494 223 504 216 515 b 212 520 207 522 202 522 b 198 522 195 521 191 520 b 185 518 168 509 149 496 b 150 518 149 536 147 541 b 145 548 143 562 129 562 b 119 562 114 553 112 545 b 110 539 109 522 108 501 b 94 514 81 523 76 525 b 72 527 66 530 60 530 b 56 530 52 529 49 524 b 42 517 46 507 51 500 b 55 493 73 477 96 459 b 75 443 56 428 45 418 b 34 407 41 398 51 398 b 53 398 55 398 58 399 b 68 404 88 414 110 426 b 112 402 114 380 116 366 b 118 358 122 354 127 354 b 132 354 137 359 139 366 b 140 377 143 398 145 421 b 163 408 180 396 192 390 b 195 388 198 387 201 387 b 210 387 213 398 206 407 b 198 417 179 435 159 455 z"},"Y":{"x_min":0,"x_max":236,"ha":236,"o":"m 259 568 b 256 581 228 589 205 589 b 190 589 176 585 175 576 b 168 521 139 396 110 272 b 78 383 53 511 43 570 b 41 580 31 585 20 585 b 7 585 -6 577 -3 563 b 9 496 44 314 88 182 b 70 105 53 36 43 -8 b 42 -21 62 -42 81 -42 b 88 -42 95 -39 100 -31 b 151 129 263 552 259 568 z"},"c":{"x_min":0,"x_max":253,"ha":253,"o":"m 103 0 b 186 0 269 175 274 190 b 277 199 271 205 264 205 b 259 205 255 203 253 198 b 240 168 172 28 111 26 b 87 26 82 82 82 125 b 82 206 123 253 136 253 b 143 253 146 242 146 233 b 146 224 153 218 159 218 b 166 218 172 224 172 236 b 172 267 153 292 117 292 b 79 292 -10 261 -10 130 b -10 24 55 0 103 0 z"},"!":{"x_min":0,"x_max":113,"ha":113,"o":"m 71 88 b 84 120 113 503 101 545 b 98 556 88 562 64 562 b 47 562 47 558 42 553 b 15 505 15 145 34 88 b 36 83 43 81 51 81 b 60 81 69 84 71 88 z m 51 52 b 17 52 4 33 4 17 b 4 0 15 -34 48 -34 b 82 -34 97 1 97 17 b 97 37 85 52 51 52 z"},"/":{"x_min":0,"x_max":316,"ha":316,"o":"m 289 567 b 283 570 279 571 276 571 b 270 571 268 568 264 565 b 214 519 26 90 14 14 b 12 3 28 -4 39 -4 b 43 -4 46 -3 48 -1 b 76 33 302 477 314 531 b 317 545 310 557 289 567 z"},"[":{"x_min":0,"x_max":266,"ha":266,"o":"m 219 -20 b 207 -19 186 -18 158 -18 b 140 -18 119 -19 97 -20 b 110 101 131 511 124 591 b 135 591 147 592 161 592 b 177 592 196 591 217 590 b 237 589 243 626 219 628 b 209 629 190 629 165 629 b 139 629 106 629 69 626 b 57 625 53 606 59 595 b 36 485 38 26 56 -51 b 58 -58 64 -61 72 -61 l 74 -61 l 80 -60 b 90 -59 113 -56 152 -56 b 170 -56 192 -57 217 -58 b 237 -59 243 -21 219 -20 z"},"6":{"x_min":0,"x_max":273,"ha":273,"o":"m 167 352 b 143 352 124 330 112 305 b 127 478 164 514 181 514 b 193 514 204 504 204 441 b 204 434 210 430 217 430 b 227 430 240 438 240 452 b 240 499 243 521 224 548 b 213 563 187 572 162 572 b 139 572 117 565 105 549 b 89 528 16 455 16 255 b 16 54 62 0 126 0 b 195 0 246 86 246 200 b 246 253 237 352 167 352 z m 141 50 b 119 50 104 86 106 199 b 116 236 142 316 169 316 b 194 316 208 253 208 197 b 205 102 164 50 141 50 z"},"r":{"x_min":0,"x_max":230,"ha":230,"o":"m 230 198 b 230 198 153 6 121 6 b 96 6 131 212 131 243 b 131 295 95 300 52 300 b 60 335 50 347 33 347 b 0 347 -18 283 24 283 b 19 259 11 230 0 198 b -3 190 4 182 11 182 b 26 182 45 267 48 281 b 53 279 57 275 57 263 b 57 223 36 124 36 48 b 36 -9 63 -44 105 -44 b 161 -44 251 190 251 190 b 254 199 247 205 240 205 b 235 205 231 203 230 198 z"},"2":{"x_min":0,"x_max":263,"ha":263,"o":"m 203 45 b 193 46 163 46 127 46 b 114 46 101 46 87 46 b 96 197 247 349 247 455 b 247 493 224 574 124 574 b 50 574 49 495 49 471 b 49 459 57 453 66 453 b 74 453 82 459 82 470 b 82 493 89 531 113 531 b 122 531 149 523 149 487 b 149 380 13 186 11 22 b 11 10 16 -3 27 -2 b 27 -2 69 3 131 3 b 153 3 177 3 202 1 b 220 0 226 44 203 45 z"},"{":{"x_min":0,"x_max":213,"ha":213,"o":"m 185 626 b 110 626 51 605 51 516 b 51 426 68 364 31 338 b 12 324 18 311 35 299 b 69 276 47 105 47 44 b 47 -17 96 -57 169 -57 b 187 -57 187 -20 169 -20 b 126 -20 104 10 104 44 b 104 78 139 288 90 315 b 141 371 120 500 120 534 b 120 568 135 589 182 589 b 198 589 210 626 185 626 z"},"9":{"x_min":0,"x_max":272,"ha":272,"o":"m 136 572 b 67 572 17 486 17 372 b 17 320 26 220 95 220 b 120 220 138 242 151 267 b 135 94 98 58 82 58 b 70 58 59 68 59 131 b 59 138 53 142 46 142 b 35 142 22 134 22 120 b 22 73 20 51 39 24 b 50 9 75 0 101 0 b 123 0 146 7 158 23 b 173 44 246 117 246 317 b 246 518 200 572 136 572 z m 93 256 b 69 256 55 319 55 375 b 57 470 99 522 121 522 b 144 522 159 486 157 373 b 146 336 120 256 93 256 z"}," ":{"x_min":0,"x_max":173,"ha":173,"o":""},"I":{"x_min":0,"x_max":162,"ha":162,"o":"m 76 532 b 64 532 54 531 44 524 b 36 518 2 226 37 11 b 38 3 58 -4 74 -4 b 85 -4 94 -1 94 7 b 94 24 119 504 116 515 b 113 525 93 530 76 532 z"},"H":{"x_min":0,"x_max":323,"ha":323,"o":"m 271 540 b 268 554 257 562 233 562 b 217 562 216 556 211 550 b 197 517 190 368 190 225 b 169 223 134 219 82 210 b 89 363 97 537 95 543 b 92 555 71 560 54 562 b 42 562 32 561 23 553 b 15 546 -20 222 14 -16 b 16 -25 36 -32 51 -32 b 62 -32 71 -29 71 -21 b 71 -13 75 72 80 175 b 88 178 115 185 190 192 b 190 80 195 -22 203 -53 b 205 -59 212 -62 220 -62 b 229 -62 239 -58 240 -53 b 253 -11 282 486 271 540 z"},"4":{"x_min":0,"x_max":263,"ha":263,"o":"m 228 201 b 223 201 214 202 203 202 b 210 356 219 548 217 554 b 215 566 194 571 177 572 b 175 573 173 573 172 573 b 161 573 153 570 145 564 b 145 563 144 561 143 557 l 20 186 b 16 173 21 154 36 155 b 36 155 71 159 124 160 b 126 109 130 59 137 12 b 139 3 159 -4 174 -4 b 185 -4 194 0 194 7 b 194 14 197 77 201 159 b 209 159 218 158 226 158 b 246 157 252 199 228 201 z m 127 407 b 124 347 121 276 123 203 b 100 202 76 202 53 201 z"},"~":{"x_min":0,"x_max":314,"ha":314,"o":"m 78 412 b 72 404 83 386 88 388 b 96 392 136 427 141 427 b 147 427 155 386 196 386 b 237 386 270 451 270 451 b 272 456 265 460 259 460 b 255 460 252 459 250 456 b 250 456 218 416 195 416 b 172 416 171 463 147 463 b 130 463 91 429 78 412 z"},"D":{"x_min":0,"x_max":386,"ha":386,"o":"m 213 602 b 158 602 120 527 94 434 b 96 487 95 526 92 540 b 88 554 74 562 44 562 b 23 562 22 556 17 550 b -18 488 -18 21 6 -53 b 9 -59 18 -62 28 -62 b 39 -62 51 -58 53 -53 b 63 -28 80 159 89 317 b 112 436 148 551 202 551 b 290 551 199 -17 104 -17 b 91 -17 85 -11 85 0 b 85 3 81 6 76 6 b 72 6 69 4 69 0 b 69 0 65 -43 110 -43 b 293 -43 477 602 213 602 z"},"^":{"x_min":0,"x_max":254,"ha":254,"o":"m 202 387 b 202 387 181 399 135 455 b 133 457 130 458 127 458 b 124 458 120 457 111 453 b 111 453 98 434 38 390 b 29 383 39 367 52 367 b 68 367 113 401 123 411 b 134 401 178 365 190 365 b 202 365 216 379 202 387 z"},"0":{"x_min":0,"x_max":283,"ha":283,"o":"m 211 555 b 199 571 173 581 148 581 b 127 581 106 574 95 557 b 80 535 19 458 19 250 b 19 42 78 -15 142 -15 b 217 -15 263 123 263 286 b 263 449 250 503 211 555 z m 154 15 b 128 15 111 85 111 244 b 111 474 163 520 181 520 b 199 520 225 489 225 288 b 225 86 177 15 154 15 z"},"F":{"x_min":0,"x_max":214,"ha":214,"o":"m 246 589 b 225 588 124 579 55 567 b 52 566 49 564 48 562 b 38 562 30 559 23 553 b 14 546 -20 222 14 -16 b 15 -25 35 -32 51 -32 b 62 -32 71 -29 71 -21 b 71 -13 76 90 81 205 b 98 209 130 215 188 219 b 207 220 210 253 188 253 b 187 253 187 253 186 253 b 168 251 135 248 83 239 b 89 371 95 510 95 538 b 127 543 183 551 248 556 b 268 557 270 591 246 589 z"},"`":{"x_min":0,"x_max":223,"ha":223,"o":"m 167 397 b 146 404 95 438 85 448 b 82 451 77 453 72 453 b 62 453 52 447 52 435 b 52 408 133 373 155 373 b 177 373 174 395 167 397 z"},"k":{"x_min":0,"x_max":266,"ha":266,"o":"m 190 9 b 176 16 134 45 109 82 b 184 107 243 165 243 233 b 243 287 170 300 170 300 b 132 300 103 258 72 198 b 81 350 94 508 87 539 b 84 553 72 562 49 562 b 32 562 25 556 21 550 b -6 488 -6 21 13 -53 b 15 -59 22 -62 30 -62 b 39 -62 48 -58 50 -53 b 53 -42 58 4 63 65 b 89 32 145 -1 177 -10 b 179 -11 181 -11 183 -11 b 196 -11 196 6 190 9 z m 170 269 b 173 269 178 267 178 260 b 177 232 130 158 74 130 b 108 233 157 269 170 269 z"},"u":{"x_min":0,"x_max":298,"ha":298,"o":"m 298 198 b 298 198 239 32 217 32 b 196 32 217 233 217 246 b 217 260 196 278 158 272 b 143 239 87 73 69 73 b 58 73 78 228 78 253 b 78 278 62 295 41 295 b 20 295 16 285 16 285 b 11 265 -2 219 -2 166 b -2 113 2 38 55 38 b 88 38 125 123 144 174 b 143 160 143 148 143 137 b 143 90 143 -19 205 -19 b 247 -19 319 190 319 190 b 322 199 315 205 308 205 b 304 205 300 203 298 198 z"},"]":{"x_min":0,"x_max":271,"ha":271,"o":"m 204 619 b 202 626 195 629 188 629 l 179 628 b 170 627 150 625 115 625 b 96 625 72 625 43 627 b 23 628 17 590 41 589 b 54 588 79 587 114 587 b 129 587 145 587 163 588 b 149 467 129 58 136 -23 b 114 -23 83 -23 43 -21 b 23 -20 17 -58 41 -59 b 52 -59 74 -61 102 -61 b 127 -61 157 -60 190 -57 b 202 -56 206 -38 200 -27 b 223 83 222 543 204 619 z"},"U":{"x_min":0,"x_max":290,"ha":290,"o":"m 38 601 b 23 586 -3 407 -3 236 b -3 65 38 -41 116 -41 b 194 -41 249 87 249 352 b 249 527 245 562 242 571 b 239 579 229 583 219 583 b 209 583 199 580 195 571 b 190 562 195 -5 128 -5 b 113 -5 100 80 100 198 b 100 316 118 544 118 577 b 118 599 90 609 66 609 b 54 609 43 606 38 601 z"},"o":{"x_min":0,"x_max":189,"ha":189,"o":"m 115 268 b 112 273 91 278 63 278 b 28 278 -15 199 -15 101 b -15 3 38 0 67 0 b 122 0 159 130 159 184 b 159 240 140 265 115 268 z m 77 25 b 72 25 64 48 64 95 b 64 150 88 221 106 252 b 120 247 132 231 132 184 b 132 110 81 25 77 25 z"},"N":{"x_min":0,"x_max":318,"ha":318,"o":"m 266 583 b 263 594 242 602 224 602 b 212 602 201 599 197 592 b 191 583 179 352 176 198 b 152 344 95 560 90 575 b 87 583 74 586 61 586 b 45 586 29 582 25 575 b 7 544 -18 59 8 -44 b 11 -50 21 -53 30 -53 b 42 -53 54 -49 56 -43 b 59 -33 48 320 70 502 b 70 502 177 -11 191 -24 b 192 -26 194 -28 197 -30 b 205 -36 214 -41 221 -41 b 224 -41 227 -40 228 -37 l 228 -36 b 243 -35 258 -31 261 -20 b 266 0 292 496 266 583 z"},"+":{"x_min":0,"x_max":334,"ha":334,"o":"m 295 300 b 277 306 237 309 194 309 b 198 359 200 404 196 414 b 194 421 185 425 166 425 b 152 425 152 422 148 419 b 138 407 133 360 131 308 b 81 306 36 300 21 293 b 15 290 18 267 23 265 b 32 262 78 259 130 257 b 131 206 135 160 141 146 b 143 143 149 141 155 141 b 162 141 170 143 172 146 b 176 154 183 203 189 256 b 207 256 279 256 294 262 b 307 268 306 291 295 300 z"},"G":{"x_min":0,"x_max":322,"ha":322,"o":"m 226 422 b 230 418 235 417 241 417 b 254 417 268 424 268 431 b 268 457 287 601 184 601 b 61 601 2 417 2 244 b 2 86 44 6 83 -33 b 97 -47 119 -54 141 -54 b 160 -54 178 -48 188 -38 b 250 24 283 163 283 250 b 283 259 279 266 269 268 b 250 272 220 272 203 272 b 196 272 191 272 191 272 b 170 272 173 241 188 240 l 236 239 b 255 239 196 -20 153 -20 b 128 -20 113 73 113 244 b 113 391 154 556 193 556 b 232 556 217 431 226 422 z"},"q":{"x_min":0,"x_max":337,"ha":337,"o":"m 337 198 b 337 198 276 82 237 -12 b 250 133 263 298 262 303 b 260 307 245 309 232 309 b 221 309 210 308 207 305 b 204 298 200 289 197 277 b 185 286 165 292 133 292 b 39 292 -21 195 -21 114 b -21 43 5 0 59 0 b 97 0 141 77 173 149 b 157 18 152 -151 163 -222 b 166 -228 181 -231 194 -231 b 205 -231 215 -229 216 -224 b 217 -222 220 -190 225 -142 b 240 -51 359 190 359 190 b 362 199 354 205 347 205 b 343 205 339 203 337 198 z m 76 54 b 68 54 62 62 62 83 b 62 182 116 252 140 252 b 159 252 162 205 162 185 b 135 123 101 54 76 54 z"},"d":{"x_min":0,"x_max":357,"ha":357,"o":"m 357 198 b 357 198 278 -13 245 -13 b 241 -13 239 -9 239 -4 b 239 328 275 577 272 587 b 269 597 255 602 242 602 b 231 602 220 598 217 590 b 200 533 178 413 168 286 b 166 281 164 276 163 271 b 152 289 135 299 104 299 b 43 299 -10 216 -10 138 b -10 95 7 49 63 49 b 102 49 138 127 162 191 b 159 111 162 34 174 -27 b 184 -62 204 -76 224 -76 b 280 -76 379 190 379 190 b 382 199 375 205 367 205 b 363 205 359 203 357 198 z m 81 98 b 47 98 93 268 121 268 b 135 268 143 247 147 226 b 123 161 96 98 81 98 z"},"1":{"x_min":0,"x_max":218,"ha":218,"o":"m 179 554 b 176 566 156 571 139 572 b 126 572 116 572 106 563 b 77 512 28 450 16 439 b 8 432 11 418 21 418 b 23 418 25 419 28 420 b 40 426 68 441 94 469 b 84 357 76 166 99 12 b 100 3 120 -4 136 -4 b 147 -4 156 -1 156 7 b 156 26 182 543 179 554 z"},"5":{"x_min":0,"x_max":223,"ha":223,"o":"m 208 571 b 197 571 155 574 112 574 b 92 574 72 573 54 572 b 47 571 43 562 44 553 b 41 552 38 550 37 548 b 32 542 21 430 26 342 b 27 326 42 320 57 320 b 62 320 67 321 77 320 b 101 320 123 281 123 213 b 123 124 97 52 72 52 b 28 52 39 145 39 157 b 39 163 31 166 24 166 b 16 166 9 163 9 157 b 9 112 0 0 78 0 b 102 0 201 17 201 215 b 201 291 175 353 90 359 b 89 438 101 525 101 539 b 136 539 171 538 206 536 b 221 535 227 569 208 571 z"}}}
